# Blender 4.5.3 LTS
# www.blender.org
mtllib Achsen Gizmo Rotate Z.mtl
o Cylinder.005
v 0.000000 28.286844 -0.156337
v 0.000000 28.286844 0.156339
v 5.518489 27.743319 -0.156337
v 5.518489 27.743319 0.156339
v 10.824907 26.133635 -0.156337
v 10.824907 26.133635 0.156339
v 15.715328 23.519651 -0.156337
v 15.715328 23.519651 0.156339
v 20.001820 20.001820 -0.156337
v 20.001820 20.001820 0.156339
v 23.519651 15.715328 -0.156337
v 23.519651 15.715328 0.156338
v 26.133635 10.824907 -0.156337
v 26.133635 10.824907 0.156338
v 27.743319 5.518489 -0.156338
v 27.743319 5.518489 0.156338
v 28.286844 0.000000 -0.156338
v 28.286844 -0.000000 0.156338
v 27.743319 -5.518489 -0.156338
v 27.743319 -5.518489 0.156338
v 26.133635 -10.824907 -0.156338
v 26.133635 -10.824907 0.156337
v 23.519651 -15.715328 -0.156338
v 23.519651 -15.715328 0.156337
v 20.001820 -20.001820 -0.156339
v 20.001820 -20.001820 0.156337
v 15.715328 -23.519651 -0.156339
v 15.715328 -23.519651 0.156337
v 10.824907 -26.133635 -0.156339
v 10.824907 -26.133635 0.156337
v 5.518489 -27.743319 -0.156339
v 5.518489 -27.743319 0.156337
v 0.000000 -28.286844 -0.156339
v 0.000000 -28.286844 0.156337
v -5.518489 -27.743319 -0.156339
v -5.518489 -27.743319 0.156337
v -10.824907 -26.133635 -0.156339
v -10.824907 -26.133635 0.156337
v -15.715328 -23.519651 -0.156339
v -15.715328 -23.519651 0.156337
v -20.001820 -20.001820 -0.156339
v -20.001820 -20.001820 0.156337
v -23.519651 -15.715328 -0.156338
v -23.519651 -15.715328 0.156337
v -26.133635 -10.824907 -0.156338
v -26.133635 -10.824907 0.156337
v -27.743319 -5.518489 -0.156338
v -27.743319 -5.518489 0.156338
v -28.286844 0.000000 -0.156338
v -28.286844 -0.000000 0.156338
v -27.743319 5.518489 -0.156338
v -27.743319 5.518489 0.156338
v -26.133635 10.824907 -0.156337
v -26.133635 10.824907 0.156338
v -23.519651 15.715328 -0.156337
v -23.519651 15.715328 0.156338
v -20.001820 20.001820 -0.156337
v -20.001820 20.001820 0.156339
v -15.715328 23.519651 -0.156337
v -15.715328 23.519651 0.156339
v -10.824907 26.133635 -0.156337
v -10.824907 26.133635 0.156339
v -5.518489 27.743319 -0.156337
v -5.518489 27.743319 0.156339
v -21.167685 14.143795 0.156338
v -14.143795 21.167685 0.156339
v -18.001637 18.001637 0.156339
v -4.966640 24.968985 0.156339
v -9.742416 23.520271 0.156339
v 4.966640 24.968985 0.156339
v 0.000000 25.458160 0.156339
v -25.458160 -0.000000 0.156338
v -24.968985 4.966640 0.156338
v -24.968985 -4.966640 0.156338
v -21.167685 -14.143795 0.156337
v -14.143795 -21.167685 0.156337
v -18.001637 -18.001637 0.156337
v -23.520271 -9.742416 0.156337
v -4.966640 -24.968985 0.156337
v 4.966640 -24.968985 0.156337
v 0.000000 -25.458160 0.156337
v 18.001637 -18.001637 0.156337
v 14.143795 -21.167685 0.156337
v 21.167685 -14.143795 0.156337
v 9.742416 -23.520271 0.156337
v 14.143795 21.167685 0.156339
v 21.167685 14.143795 0.156338
v 18.001637 18.001637 0.156339
v 25.458160 -0.000000 0.156338
v 24.968985 -4.966640 0.156338
v 24.968985 4.966640 0.156338
v 23.520271 9.742416 0.156338
v -23.520271 9.742416 0.156338
v 9.742416 23.520271 0.156339
v -9.742416 -23.520271 0.156337
v 23.520271 -9.742416 0.156337
v 0.000000 25.458160 -0.156337
v 9.742416 23.520271 -0.156337
v 4.966640 24.968985 -0.156337
v 18.001637 18.001637 -0.156337
v 21.167685 14.143795 -0.156337
v 23.520271 9.742416 -0.156337
v 14.143795 21.167685 -0.156337
v 9.742416 -23.520271 -0.156339
v 18.001637 -18.001637 -0.156339
v 14.143795 -21.167685 -0.156339
v 23.520271 -9.742416 -0.156338
v 21.167685 -14.143795 -0.156338
v 25.458160 0.000000 -0.156338
v 24.968985 -4.966640 -0.156338
v -23.520271 -9.742416 -0.156338
v -18.001637 -18.001637 -0.156339
v -21.167685 -14.143795 -0.156338
v -9.742416 -23.520271 -0.156339
v -14.143795 -21.167685 -0.156339
v 0.000000 -25.458160 -0.156339
v -4.966640 -24.968985 -0.156339
v -25.458160 0.000000 -0.156338
v -23.520271 9.742416 -0.156337
v -24.968985 4.966640 -0.156338
v -18.001637 18.001637 -0.156337
v -9.742416 23.520271 -0.156337
v -14.143795 21.167685 -0.156337
v -21.167685 14.143795 -0.156337
v 24.968985 4.966640 -0.156338
v 4.966640 -24.968985 -0.156339
v -24.968985 -4.966640 -0.156338
v -4.966640 24.968985 -0.156337
vn 0.0980 0.9952 -0.0000
vn 0.2903 0.9569 -0.0000
vn 0.4714 0.8819 -0.0000
vn 0.6344 0.7730 -0.0000
vn 0.7730 0.6344 -0.0000
vn 0.8819 0.4714 -0.0000
vn 0.9569 0.2903 -0.0000
vn 0.9952 0.0980 -0.0000
vn 0.9952 -0.0980 -0.0000
vn 0.9569 -0.2903 -0.0000
vn 0.8819 -0.4714 -0.0000
vn 0.7730 -0.6344 -0.0000
vn 0.6344 -0.7730 -0.0000
vn 0.4714 -0.8819 -0.0000
vn 0.2903 -0.9569 -0.0000
vn 0.0980 -0.9952 -0.0000
vn -0.0980 -0.9952 -0.0000
vn -0.2903 -0.9569 -0.0000
vn -0.4714 -0.8819 -0.0000
vn -0.6344 -0.7730 -0.0000
vn -0.7730 -0.6344 -0.0000
vn -0.8819 -0.4714 -0.0000
vn -0.9569 -0.2903 -0.0000
vn -0.9952 -0.0980 -0.0000
vn -0.9952 0.0980 -0.0000
vn -0.9569 0.2903 -0.0000
vn -0.8819 0.4714 -0.0000
vn -0.7730 0.6344 -0.0000
vn -0.6344 0.7730 -0.0000
vn -0.4714 0.8819 -0.0000
vn -0.0000 -0.0000 1.0000
vn -0.2903 0.9569 -0.0000
vn -0.0980 0.9952 -0.0000
vn -0.0000 -0.0000 -1.0000
vt 1.000000 0.500000
vt 1.000000 1.000000
vt 0.968750 1.000000
vt 0.968750 0.500000
vt 0.937500 1.000000
vt 0.937500 0.500000
vt 0.906250 1.000000
vt 0.906250 0.500000
vt 0.875000 1.000000
vt 0.875000 0.500000
vt 0.843750 1.000000
vt 0.843750 0.500000
vt 0.812500 1.000000
vt 0.812500 0.500000
vt 0.781250 1.000000
vt 0.781250 0.500000
vt 0.750000 1.000000
vt 0.750000 0.500000
vt 0.718750 1.000000
vt 0.718750 0.500000
vt 0.687500 1.000000
vt 0.687500 0.500000
vt 0.656250 1.000000
vt 0.656250 0.500000
vt 0.625000 1.000000
vt 0.625000 0.500000
vt 0.593750 1.000000
vt 0.593750 0.500000
vt 0.562500 1.000000
vt 0.562500 0.500000
vt 0.531250 1.000000
vt 0.531250 0.500000
vt 0.500000 1.000000
vt 0.500000 0.500000
vt 0.468750 1.000000
vt 0.468750 0.500000
vt 0.437500 1.000000
vt 0.437500 0.500000
vt 0.406250 1.000000
vt 0.406250 0.500000
vt 0.375000 1.000000
vt 0.375000 0.500000
vt 0.343750 1.000000
vt 0.343750 0.500000
vt 0.312500 1.000000
vt 0.312500 0.500000
vt 0.281250 1.000000
vt 0.281250 0.500000
vt 0.250000 1.000000
vt 0.250000 0.500000
vt 0.218750 1.000000
vt 0.218750 0.500000
vt 0.187500 1.000000
vt 0.187500 0.500000
vt 0.156250 1.000000
vt 0.156250 0.500000
vt 0.125000 1.000000
vt 0.125000 0.500000
vt 0.093750 1.000000
vt 0.093750 0.500000
vt 0.062500 1.000000
vt 0.062500 0.500000
vt 0.167340 0.050442
vt 0.158156 0.028269
vt 0.203178 0.014612
vt 0.250000 0.010000
vt 0.296822 0.014612
vt 0.341844 0.028269
vt 0.383337 0.050447
vt 0.419706 0.080294
vt 0.449553 0.116663
vt 0.471731 0.158156
vt 0.449558 0.167340
vt 0.429597 0.129997
vt 0.402735 0.097265
vt 0.370003 0.070403
vt 0.332660 0.050442
vt 0.292140 0.038150
vt 0.250000 0.034000
vt 0.207861 0.038150
vt 0.485388 0.203178
vt 0.490000 0.250000
vt 0.485388 0.296822
vt 0.471731 0.341844
vt 0.449553 0.383337
vt 0.419706 0.419706
vt 0.383337 0.449553
vt 0.341844 0.471731
vt 0.296822 0.485388
vt 0.250000 0.490000
vt 0.203178 0.485388
vt 0.158156 0.471731
vt 0.116663 0.449553
vt 0.080294 0.419706
vt 0.050447 0.383337
vt 0.028269 0.341844
vt 0.014612 0.296822
vt 0.010000 0.250000
vt 0.014612 0.203178
vt 0.028269 0.158156
vt 0.050447 0.116663
vt 0.080294 0.080294
vt 0.116663 0.050447
vt 0.129997 0.070403
vt 0.097265 0.097265
vt 0.070403 0.129997
vt 0.050442 0.167340
vt 0.038150 0.207861
vt 0.034000 0.250000
vt 0.038150 0.292140
vt 0.050442 0.332660
vt 0.070403 0.370003
vt 0.097265 0.402735
vt 0.129997 0.429597
vt 0.167340 0.449558
vt 0.207861 0.461850
vt 0.250000 0.466000
vt 0.292140 0.461850
vt 0.332660 0.449558
vt 0.370003 0.429597
vt 0.402735 0.402735
vt 0.429597 0.370003
vt 0.449558 0.332660
vt 0.461850 0.292139
vt 0.466000 0.250000
vt 0.461850 0.207861
vt 0.031250 1.000000
vt 0.031250 0.500000
vt 0.000000 1.000000
vt 0.000000 0.500000
vt 0.629997 0.070403
vt 0.616663 0.050447
vt 0.580294 0.080294
vt 0.550447 0.116663
vt 0.528269 0.158156
vt 0.514612 0.203178
vt 0.510000 0.250000
vt 0.514612 0.296822
vt 0.528269 0.341844
vt 0.550447 0.383337
vt 0.570403 0.370003
vt 0.550442 0.332660
vt 0.538150 0.292139
vt 0.534000 0.250000
vt 0.538150 0.207860
vt 0.550442 0.167340
vt 0.570403 0.129997
vt 0.597265 0.097265
vt 0.580294 0.419706
vt 0.616663 0.449553
vt 0.658156 0.471731
vt 0.703178 0.485388
vt 0.750000 0.490000
vt 0.796822 0.485388
vt 0.841844 0.471731
vt 0.883337 0.449553
vt 0.919706 0.419706
vt 0.949553 0.383337
vt 0.971731 0.341844
vt 0.985388 0.296822
vt 0.990000 0.250000
vt 0.985388 0.203178
vt 0.971731 0.158156
vt 0.949553 0.116663
vt 0.919706 0.080294
vt 0.883337 0.050447
vt 0.841844 0.028269
vt 0.796822 0.014612
vt 0.750000 0.010000
vt 0.703178 0.014612
vt 0.658156 0.028269
vt 0.667340 0.050442
vt 0.707861 0.038150
vt 0.750000 0.034000
vt 0.792139 0.038150
vt 0.832660 0.050442
vt 0.870003 0.070403
vt 0.902735 0.097265
vt 0.929597 0.129997
vt 0.949558 0.167340
vt 0.961850 0.207861
vt 0.966000 0.250000
vt 0.961850 0.292140
vt 0.949558 0.332660
vt 0.929598 0.370003
vt 0.902735 0.402735
vt 0.870003 0.429597
vt 0.832660 0.449558
vt 0.792139 0.461850
vt 0.750000 0.466000
vt 0.707861 0.461850
vt 0.667340 0.449558
vt 0.629997 0.429597
vt 0.597265 0.402735
vt 0.968750 0.682796
vt 0.968750 0.817204
vt 1.000000 0.817204
vt 1.000000 0.682796
vt 0.937500 0.682796
vt 0.937500 0.817204
vt 0.906250 0.682796
vt 0.906250 0.817204
vt 0.875000 0.682796
vt 0.875000 0.817204
vt 0.843750 0.817204
vt 0.843750 0.682796
vt 0.812500 0.817204
vt 0.812500 0.682796
vt 0.781250 0.817204
vt 0.781250 0.682796
vt 0.750000 0.817204
vt 0.750000 0.682796
vt 0.718750 0.817204
vt 0.718750 0.682796
vt 0.687500 0.817204
vt 0.687500 0.682796
vt 0.656250 0.817204
vt 0.656250 0.682796
vt 0.625000 0.817204
vt 0.625000 0.682796
vt 0.593750 0.817204
vt 0.593750 0.682796
vt 0.562500 0.817204
vt 0.562500 0.682796
vt 0.531250 0.817204
vt 0.531250 0.682796
vt 0.500000 0.817204
vt 0.500000 0.682796
vt 0.468750 0.817204
vt 0.468750 0.682796
vt 0.437500 0.817204
vt 0.437500 0.682796
vt 0.406250 0.817204
vt 0.406250 0.682796
vt 0.375000 0.817204
vt 0.375000 0.682796
vt 0.343750 0.682796
vt 0.343750 0.817204
vt 0.312500 0.682796
vt 0.312500 0.817204
vt 0.281250 0.682796
vt 0.281250 0.817204
vt 0.250000 0.682796
vt 0.250000 0.817204
vt 0.218750 0.682796
vt 0.218750 0.817204
vt 0.187500 0.682796
vt 0.187500 0.817204
vt 0.156250 0.682796
vt 0.156250 0.817204
vt 0.125000 0.682796
vt 0.125000 0.817204
vt 0.093750 0.682796
vt 0.093750 0.817204
vt 0.062500 0.682796
vt 0.062500 0.817204
vt 0.031250 0.682796
vt 0.031250 0.817204
vt 0.000000 0.682796
vt 0.000000 0.817204
s 0
f 1/1/1 2/2/1 4/3/1 3/4/1
f 3/4/2 4/3/2 6/5/2 5/6/2
f 5/6/3 6/5/3 8/7/3 7/8/3
f 7/8/4 8/7/4 10/9/4 9/10/4
f 9/10/5 10/9/5 12/11/5 11/12/5
f 11/12/6 12/11/6 14/13/6 13/14/6
f 13/14/7 14/13/7 16/15/7 15/16/7
f 15/16/8 16/15/8 18/17/8 17/18/8
f 17/18/9 18/17/9 20/19/9 19/20/9
f 19/20/10 20/19/10 22/21/10 21/22/10
f 21/22/11 22/21/11 24/23/11 23/24/11
f 23/24/12 24/23/12 26/25/12 25/26/12
f 25/26/13 26/25/13 28/27/13 27/28/13
f 27/28/14 28/27/14 30/29/14 29/30/14
f 29/30/15 30/29/15 32/31/15 31/32/15
f 31/32/16 32/31/16 34/33/16 33/34/16
f 33/34/17 34/33/17 36/35/17 35/36/17
f 35/36/18 36/35/18 38/37/18 37/38/18
f 37/38/19 38/37/19 40/39/19 39/40/19
f 39/40/20 40/39/20 42/41/20 41/42/20
f 41/42/21 42/41/21 44/43/21 43/44/21
f 43/44/22 44/43/22 46/45/22 45/46/22
f 45/46/23 46/45/23 48/47/23 47/48/23
f 47/48/24 48/47/24 50/49/24 49/50/24
f 49/50/25 50/49/25 52/51/25 51/52/25
f 51/52/26 52/51/26 54/53/26 53/54/26
f 53/54/27 54/53/27 56/55/27 55/56/27
f 55/56/28 56/55/28 58/57/28 57/58/28
f 57/58/29 58/57/29 60/59/29 59/60/29
f 59/60/30 60/59/30 62/61/30 61/62/30
f 95/63/31 38/64/31 36/65/31 34/66/31 32/67/31 30/68/31 28/69/31 26/70/31 24/71/31 22/72/31 96/73/31 84/74/31 82/75/31 83/76/31 85/77/31 80/78/31 81/79/31 79/80/31
f 22/72/31 20/81/31 18/82/31 16/83/31 14/84/31 12/85/31 10/86/31 8/87/31 6/88/31 4/89/31 2/90/31 64/91/31 62/92/31 60/93/31 58/94/31 56/95/31 54/96/31 52/97/31 50/98/31 48/99/31 46/100/31 44/101/31 42/102/31 40/103/31 38/64/31 95/63/31 76/104/31 77/105/31 75/106/31 78/107/31 74/108/31 72/109/31 73/110/31 93/111/31 65/112/31 67/113/31 66/114/31 69/115/31 68/116/31 71/117/31 70/118/31 94/119/31 86/120/31 88/121/31 87/122/31 92/123/31 91/124/31 89/125/31 90/126/31 96/73/31
f 61/62/32 62/61/32 64/127/32 63/128/32
f 63/128/33 64/127/33 2/129/33 1/130/33
f 115/131/34 39/132/34 41/133/34 43/134/34 45/135/34 47/136/34 49/137/34 51/138/34 53/139/34 55/140/34 124/141/34 119/142/34 120/143/34 118/144/34 127/145/34 111/146/34 113/147/34 112/148/34
f 124/141/34 55/140/34 57/149/34 59/150/34 61/151/34 63/152/34 1/153/34 3/154/34 5/155/34 7/156/34 9/157/34 11/158/34 13/159/34 15/160/34 17/161/34 19/162/34 21/163/34 23/164/34 25/165/34 27/166/34 29/167/34 31/168/34 33/169/34 35/170/34 37/171/34 39/132/34 115/131/34 114/172/34 117/173/34 116/174/34 126/175/34 104/176/34 106/177/34 105/178/34 108/179/34 107/180/34 110/181/34 109/182/34 125/183/34 102/184/34 101/185/34 100/186/34 103/187/34 98/188/34 99/189/34 97/190/34 128/191/34 122/192/34 123/193/34 121/194/34
f 99/195/17 70/196/17 71/197/17 97/198/17
f 98/199/18 94/200/18 70/196/18 99/195/18
f 103/201/19 86/202/19 94/200/19 98/199/19
f 100/203/20 88/204/20 86/202/20 103/201/20
f 87/205/21 88/204/21 100/203/21 101/206/21
f 92/207/22 87/205/22 101/206/22 102/208/22
f 91/209/23 92/207/23 102/208/23 125/210/23
f 89/211/24 91/209/24 125/210/24 109/212/24
f 90/213/25 89/211/25 109/212/25 110/214/25
f 96/215/26 90/213/26 110/214/26 107/216/26
f 84/217/27 96/215/27 107/216/27 108/218/27
f 82/219/28 84/217/28 108/218/28 105/220/28
f 83/221/29 82/219/29 105/220/29 106/222/29
f 85/223/30 83/221/30 106/222/30 104/224/30
f 80/225/32 85/223/32 104/224/32 126/226/32
f 81/227/33 80/225/33 126/226/33 116/228/33
f 79/229/1 81/227/1 116/228/1 117/230/1
f 95/231/2 79/229/2 117/230/2 114/232/2
f 76/233/3 95/231/3 114/232/3 115/234/3
f 77/235/4 76/233/4 115/234/4 112/236/4
f 113/237/5 75/238/5 77/235/5 112/236/5
f 111/239/6 78/240/6 75/238/6 113/237/6
f 127/241/7 74/242/7 78/240/7 111/239/7
f 118/243/8 72/244/8 74/242/8 127/241/8
f 120/245/9 73/246/9 72/244/9 118/243/9
f 119/247/10 93/248/10 73/246/10 120/245/10
f 124/249/11 65/250/11 93/248/11 119/247/11
f 121/251/12 67/252/12 65/250/12 124/249/12
f 123/253/13 66/254/13 67/252/13 121/251/13
f 122/255/14 69/256/14 66/254/14 123/253/14
f 128/257/15 68/258/15 69/256/15 122/255/15
f 97/259/16 71/260/16 68/258/16 128/257/16
